<svg width="124" height="119" viewBox="0 0 124 119" fill="none" xmlns="http://www.w3.org/2000/svg">
<path d="M57.7819 119H0.00424893V58.4855V58.3414C0.00424893 58.1705 0 58.0383 0 57.915C0.00937959 55.0622 0.431763 52.2257 1.25343 49.4924C1.99889 47.0942 3.10403 44.8217 4.53219 42.752C5.80839 40.9194 7.35707 39.2903 9.12528 37.9203C10.9047 36.5435 12.8421 35.3812 14.8967 34.4583C16.8865 33.5709 18.9667 32.9004 21.1016 32.4585H21.1087C23.0181 32.0525 24.9631 31.8351 26.9155 31.8095H39.3026V26.6834C39.2511 23.6386 39.6723 20.604 40.5518 17.6871C41.2978 15.2911 42.4016 13.0202 43.8256 10.9499C45.1036 9.11659 46.6531 7.48601 48.4215 6.11357C50.2006 4.7351 52.1388 3.57274 54.1951 2.65164C56.1843 1.76424 58.2638 1.09288 60.3978 0.649001H60.4077C62.317 0.242174 64.2628 0.0248223 66.2153 0H123.996V60.5078C124.043 63.5535 123.621 66.5883 122.744 69.5069C121.998 71.9037 120.893 74.1748 119.466 76.2441C118.189 78.0756 116.641 79.7048 114.875 81.0762C113.093 82.4545 111.153 83.6165 109.095 84.5378C107.109 85.4241 105.032 86.0937 102.901 86.5348H102.888C100.981 86.942 99.0371 87.1575 97.0866 87.1782H84.696V92.3159C84.7455 95.3606 84.3243 98.3948 83.4468 101.312C82.701 103.71 81.5967 105.982 80.1716 108.053C78.8916 109.885 77.3411 111.514 75.5721 112.885C73.7934 114.263 71.8559 115.425 69.8007 116.347C67.8123 117.233 65.7334 117.902 63.6001 118.343H63.5909C61.6815 118.754 59.7352 118.974 57.7819 119ZM57.5553 110.366C57.833 110.38 58.1417 110.388 58.4709 110.388C63.0935 110.393 67.5479 108.663 70.9436 105.544L70.9819 105.509L71.0194 105.475C72.7141 103.725 74.0313 101.649 74.8916 99.3754C75.7519 97.1014 76.1369 94.6767 76.0225 92.2497V80.9544L73.3634 82.6355C72.2229 83.3557 71.0328 83.9952 69.8021 84.5494C67.8135 85.4352 65.7347 86.1048 63.6015 86.5464H63.5923C61.6829 86.9539 59.7374 87.1694 57.7847 87.1898H47.9754V110.364L57.5553 110.366ZM8.67985 87.1919V110.366H39.3019V87.1954L8.67985 87.1919ZM96.8586 78.5623C97.1406 78.5774 97.4479 78.5844 97.7728 78.5844C102.396 78.5897 106.85 76.8593 110.246 73.7389L110.282 73.7041L110.317 73.6696C112.014 71.9209 113.333 69.8455 114.193 67.5711C115.054 65.2968 115.438 62.8717 115.321 60.4444V40.443H84.696V60.7726C84.696 60.9169 84.696 61.061 84.696 61.2139V78.5623H96.8586ZM64.5462 40.443C60.269 40.6727 56.2061 42.3769 53.0557 45.2632L53.0181 45.2935L52.9792 45.3325C49.9651 48.44 48.1877 52.5295 47.9761 56.842V78.5623H59.3837H59.4312C63.7158 78.3374 67.7873 76.6328 70.9436 73.7425L70.9819 73.7079L71.0173 73.6731C74.0342 70.5675 75.8128 66.4768 76.0211 62.1636V40.4465H64.5426L64.5462 40.443ZM26.2173 40.4177C21.5989 40.4148 17.149 42.1448 13.7573 45.2625L13.7191 45.2928L13.6851 45.3318C10.466 48.6466 8.6661 53.0745 8.66427 57.6829C8.66427 57.9844 8.66965 58.2793 8.68198 58.557V78.5615H39.304V58.4922C39.2967 58.1734 39.2967 57.8496 39.304 57.5308V40.4473H27.1443C26.7984 40.4278 26.4952 40.4191 26.2116 40.4191L26.2173 40.4177ZM65.5114 8.61309C60.8945 8.60999 56.4466 10.339 53.0557 13.4551L53.0181 13.4899L52.9792 13.5266C51.2826 15.2754 49.9639 17.3509 49.1034 19.6253C48.243 21.8998 47.8594 24.325 47.9761 26.7524V38.0484L50.6324 36.3666C51.7725 35.6462 52.9629 35.0076 54.1944 34.4555C56.1833 33.568 58.2629 32.8975 60.3971 32.4557H60.407C62.3164 32.0491 64.2621 31.8318 66.2146 31.8067H76.0232V8.63563H66.4405C66.0801 8.62192 65.7856 8.6145 65.5064 8.6145L65.5114 8.61309ZM84.6953 8.63457V31.8081H115.319V8.63703L84.6953 8.63457Z" fill="url(#paint0_linear_293_2564)"/>
<defs>
<linearGradient id="paint0_linear_293_2564" x1="62" y1="24.633" x2="0.786103" y2="110.701" gradientUnits="userSpaceOnUse">
<stop stop-color="#6812E8"/>
<stop offset="1" stop-color="#AF7CFF"/>
</linearGradient>
</defs>
</svg>
